<svg xmlns="http://www.w3.org/2000/svg" xmlns:xlink="http://www.w3.org/1999/xlink" width="500" zoomAndPan="magnify" viewBox="0 0 375 374.999991" height="500" preserveAspectRatio="xMidYMid meet" version="1.0"><defs><g/><clipPath id="6bbb65b02d"><path d="M 39.722656 0.730469 L 74.246094 0.730469 L 74.246094 21.140625 L 39.722656 21.140625 Z M 39.722656 0.730469 " clip-rule="nonzero"/></clipPath><clipPath id="641ff7ea8d"><path d="M 45.722656 0.730469 L 68.1875 0.730469 C 69.777344 0.730469 71.304688 1.363281 72.429688 2.488281 C 73.554688 3.613281 74.1875 5.140625 74.1875 6.730469 L 74.1875 15.140625 C 74.1875 16.734375 73.554688 18.257812 72.429688 19.382812 C 71.304688 20.507812 69.777344 21.140625 68.1875 21.140625 L 45.722656 21.140625 C 44.132812 21.140625 42.605469 20.507812 41.480469 19.382812 C 40.355469 18.257812 39.722656 16.734375 39.722656 15.140625 L 39.722656 6.730469 C 39.722656 5.140625 40.355469 3.613281 41.480469 2.488281 C 42.605469 1.363281 44.132812 0.730469 45.722656 0.730469 Z M 45.722656 0.730469 " clip-rule="nonzero"/></clipPath><clipPath id="b1bd3ac820"><path d="M 0.722656 0.730469 L 35.246094 0.730469 L 35.246094 21.140625 L 0.722656 21.140625 Z M 0.722656 0.730469 " clip-rule="nonzero"/></clipPath><clipPath id="86ca0a3a2e"><path d="M 6.722656 0.730469 L 29.1875 0.730469 C 30.777344 0.730469 32.304688 1.363281 33.429688 2.488281 C 34.554688 3.613281 35.1875 5.140625 35.1875 6.730469 L 35.1875 15.140625 C 35.1875 16.734375 34.554688 18.257812 33.429688 19.382812 C 32.304688 20.507812 30.777344 21.140625 29.1875 21.140625 L 6.722656 21.140625 C 5.132812 21.140625 3.605469 20.507812 2.480469 19.382812 C 1.355469 18.257812 0.722656 16.734375 0.722656 15.140625 L 0.722656 6.730469 C 0.722656 5.140625 1.355469 3.613281 2.480469 2.488281 C 3.605469 1.363281 5.132812 0.730469 6.722656 0.730469 Z M 6.722656 0.730469 " clip-rule="nonzero"/></clipPath><clipPath id="a2d53184ff"><rect x="0" width="36" y="0" height="22"/></clipPath><clipPath id="48f05442fd"><path d="M 1.667969 11.546875 L 38.9375 11.546875 L 38.9375 41.605469 L 1.667969 41.605469 Z M 1.667969 11.546875 " clip-rule="nonzero"/></clipPath><clipPath id="dcdfb0dbc4"><path d="M 21.714844 12.097656 L 38.277344 25.414062 C 38.628906 25.699219 38.835938 26.125 38.835938 26.578125 C 38.835938 27.03125 38.628906 27.457031 38.277344 27.738281 L 21.714844 41.054688 C 20.871094 41.734375 19.667969 41.734375 18.824219 41.054688 L 2.257812 27.738281 C 1.90625 27.457031 1.703125 27.03125 1.703125 26.578125 C 1.703125 26.125 1.90625 25.699219 2.257812 25.414062 L 18.824219 12.097656 C 19.667969 11.421875 20.871094 11.421875 21.714844 12.097656 Z M 21.714844 12.097656 " clip-rule="nonzero"/></clipPath><clipPath id="99a68d9508"><path d="M 0.679688 0.546875 L 37.878906 0.546875 L 37.878906 30.605469 L 0.679688 30.605469 Z M 0.679688 0.546875 " clip-rule="nonzero"/></clipPath><clipPath id="7e3576d741"><path d="M 20.714844 1.097656 L 37.277344 14.414062 C 37.628906 14.699219 37.835938 15.125 37.835938 15.578125 C 37.835938 16.03125 37.628906 16.457031 37.277344 16.738281 L 20.714844 30.054688 C 19.871094 30.734375 18.667969 30.734375 17.824219 30.054688 L 1.257812 16.738281 C 0.90625 16.457031 0.703125 16.03125 0.703125 15.578125 C 0.703125 15.125 0.90625 14.699219 1.257812 14.414062 L 17.824219 1.097656 C 18.667969 0.421875 19.871094 0.421875 20.714844 1.097656 Z M 20.714844 1.097656 " clip-rule="nonzero"/></clipPath><clipPath id="7a4e59215d"><rect x="0" width="38" y="0" height="31"/></clipPath><clipPath id="be92ae1920"><path d="M 39.722656 31.214844 L 74.246094 31.214844 L 74.246094 51.625 L 39.722656 51.625 Z M 39.722656 31.214844 " clip-rule="nonzero"/></clipPath><clipPath id="c46d1af955"><path d="M 45.722656 31.214844 L 68.1875 31.214844 C 69.777344 31.214844 71.304688 31.847656 72.429688 32.972656 C 73.554688 34.097656 74.1875 35.621094 74.1875 37.214844 L 74.1875 45.625 C 74.1875 47.214844 73.554688 48.742188 72.429688 49.867188 C 71.304688 50.992188 69.777344 51.625 68.1875 51.625 L 45.722656 51.625 C 44.132812 51.625 42.605469 50.992188 41.480469 49.867188 C 40.355469 48.742188 39.722656 47.214844 39.722656 45.625 L 39.722656 37.214844 C 39.722656 35.621094 40.355469 34.097656 41.480469 32.972656 C 42.605469 31.847656 44.132812 31.214844 45.722656 31.214844 Z M 45.722656 31.214844 " clip-rule="nonzero"/></clipPath><clipPath id="d7ba8a0c7e"><path d="M 0.722656 0.214844 L 35.246094 0.214844 L 35.246094 20.625 L 0.722656 20.625 Z M 0.722656 0.214844 " clip-rule="nonzero"/></clipPath><clipPath id="be9edbd745"><path d="M 6.722656 0.214844 L 29.1875 0.214844 C 30.777344 0.214844 32.304688 0.847656 33.429688 1.972656 C 34.554688 3.097656 35.1875 4.621094 35.1875 6.214844 L 35.1875 14.625 C 35.1875 16.214844 34.554688 17.742188 33.429688 18.867188 C 32.304688 19.992188 30.777344 20.625 29.1875 20.625 L 6.722656 20.625 C 5.132812 20.625 3.605469 19.992188 2.480469 18.867188 C 1.355469 17.742188 0.722656 16.214844 0.722656 14.625 L 0.722656 6.214844 C 0.722656 4.621094 1.355469 3.097656 2.480469 1.972656 C 3.605469 0.847656 5.132812 0.214844 6.722656 0.214844 Z M 6.722656 0.214844 " clip-rule="nonzero"/></clipPath><clipPath id="f4cdb0106c"><rect x="0" width="36" y="0" height="21"/></clipPath><clipPath id="9781be70d0"><rect x="0" width="75" y="0" height="52"/></clipPath><clipPath id="9f567dc73d"><rect x="0" width="294" y="0" height="68"/></clipPath></defs><g transform="matrix(1, 0, 0, 1, 0, 164)"><g clip-path="url(#9781be70d0)"><g clip-path="url(#6bbb65b02d)"><g clip-path="url(#641ff7ea8d)"><g transform="matrix(1, 0, 0, 1, 39, 0)"><g clip-path="url(#a2d53184ff)"><g clip-path="url(#b1bd3ac820)"><g clip-path="url(#86ca0a3a2e)"><path fill="#6b1fad" d="M 0.722656 0.730469 L 35.164062 0.730469 L 35.164062 21.140625 L 0.722656 21.140625 Z M 0.722656 0.730469 " fill-opacity="1" fill-rule="nonzero"/></g></g></g></g></g></g><g clip-path="url(#48f05442fd)"><g clip-path="url(#dcdfb0dbc4)"><g transform="matrix(1, 0, 0, 1, 1, 11)"><g clip-path="url(#7a4e59215d)"><g clip-path="url(#99a68d9508)"><g clip-path="url(#7e3576d741)"><rect x="-137.5" width="648" fill="#8f00ff" y="-311.499997" height="647.999984" fill-opacity="1"/></g></g></g></g></g></g><g clip-path="url(#be92ae1920)"><g clip-path="url(#c46d1af955)"><g transform="matrix(1, 0, 0, 1, 39, 31)"><g clip-path="url(#f4cdb0106c)"><g clip-path="url(#d7ba8a0c7e)"><g clip-path="url(#be9edbd745)"><path fill="#9457eb" d="M 0.722656 0.214844 L 35.164062 0.214844 L 35.164062 20.625 L 0.722656 20.625 Z M 0.722656 0.214844 " fill-opacity="1" fill-rule="nonzero"/></g></g></g></g></g></g></g></g><g transform="matrix(1, 0, 0, 1, 79, 156)"><g clip-path="url(#9f567dc73d)"><g fill="#ffffff" fill-opacity="1"><g transform="translate(0.964604, 54.056438)"><g><path d="M 9.375 0 C 8.1875 0 7.101562 -0.289062 6.113281 -0.863281 C 5.125 -1.4375 4.34375 -2.21875 3.769531 -3.207031 C 3.195312 -4.191406 2.910156 -5.28125 2.910156 -6.464844 L 2.910156 -32.324219 C 2.910156 -33.507812 3.195312 -34.59375 3.769531 -35.582031 C 4.34375 -36.570312 5.125 -37.351562 6.113281 -37.925781 C 7.101562 -38.5 8.1875 -38.789062 9.375 -38.789062 L 35.230469 -38.789062 C 36.417969 -38.789062 37.503906 -38.5 38.492188 -37.925781 C 39.480469 -37.351562 40.261719 -36.570312 40.835938 -35.582031 C 41.410156 -34.59375 41.695312 -33.507812 41.695312 -32.324219 L 41.695312 -6.464844 C 41.695312 -5.28125 41.410156 -4.191406 40.835938 -3.207031 C 40.261719 -2.21875 39.480469 -1.4375 38.492188 -0.863281 C 37.503906 -0.289062 36.417969 0 35.230469 0 Z M 9.375 -4.363281 L 35.230469 -4.363281 C 35.804688 -4.363281 36.300781 -4.570312 36.714844 -4.984375 C 37.125 -5.394531 37.332031 -5.890625 37.332031 -6.464844 L 37.332031 -32.324219 C 37.332031 -32.898438 37.125 -33.390625 36.714844 -33.804688 C 36.300781 -34.21875 35.804688 -34.421875 35.230469 -34.421875 L 9.375 -34.421875 C 8.800781 -34.421875 8.304688 -34.21875 7.890625 -33.804688 C 7.480469 -33.390625 7.273438 -32.898438 7.273438 -32.324219 L 7.273438 -6.464844 C 7.273438 -5.890625 7.480469 -5.394531 7.890625 -4.984375 C 8.304688 -4.570312 8.800781 -4.363281 9.375 -4.363281 Z M 9.375 -4.363281 "/></g></g></g><g fill="#ffffff" fill-opacity="1"><g transform="translate(45.569976, 54.056438)"><g><path d="M 2.910156 0 L 2.910156 -31.246094 L 44.175781 -31.246094 C 45.394531 -31.246094 46.5 -30.949219 47.488281 -30.355469 C 48.476562 -29.765625 49.257812 -28.972656 49.832031 -27.984375 C 50.40625 -27 50.691406 -25.910156 50.691406 -24.726562 L 50.691406 0 L 46.328125 0 L 46.328125 -24.726562 C 46.328125 -25.300781 46.113281 -25.796875 45.683594 -26.207031 C 45.25 -26.621094 44.75 -26.828125 44.175781 -26.828125 L 31.191406 -26.828125 C 30.617188 -26.828125 30.121094 -26.621094 29.710938 -26.207031 C 29.296875 -25.796875 29.089844 -25.300781 29.089844 -24.726562 L 29.089844 0 L 24.621094 0 L 24.621094 -24.726562 C 24.621094 -25.300781 24.414062 -25.796875 24 -26.207031 C 23.585938 -26.621094 23.09375 -26.828125 22.519531 -26.828125 L 9.480469 -26.828125 C 8.90625 -26.828125 8.414062 -26.621094 8 -26.207031 C 7.585938 -25.796875 7.378906 -25.300781 7.378906 -24.726562 L 7.378906 0 Z M 2.910156 0 "/></g></g></g><g fill="#ffffff" fill-opacity="1"><g transform="translate(98.256026, 54.056438)"><g><path d="M 2.910156 0 L 2.910156 -31.246094 L 28.230469 -31.246094 C 29.414062 -31.246094 30.5 -30.949219 31.488281 -30.355469 C 32.476562 -29.765625 33.265625 -28.972656 33.859375 -27.984375 C 34.449219 -27 34.746094 -25.910156 34.746094 -24.726562 L 34.746094 0 L 30.328125 0 L 30.328125 -24.726562 C 30.328125 -25.300781 30.121094 -25.796875 29.710938 -26.207031 C 29.296875 -26.621094 28.804688 -26.828125 28.230469 -26.828125 L 9.480469 -26.828125 C 8.90625 -26.828125 8.402344 -26.621094 7.972656 -26.207031 C 7.542969 -25.796875 7.328125 -25.300781 7.328125 -24.726562 L 7.328125 0 Z M 2.910156 0 "/></g></g></g><g fill="#ffffff" fill-opacity="1"><g transform="translate(135.7504, 54.056438)"><g><path d="M 2.800781 0 L 2.800781 -31.246094 L 7.21875 -31.246094 L 7.21875 0 Z M 2.800781 -37.0625 L 2.800781 -41.480469 L 7.21875 -41.480469 L 7.21875 -37.0625 Z M 2.800781 -37.0625 "/></g></g></g><g fill="#ffffff" fill-opacity="1"><g transform="translate(146.955614, 54.056438)"><g><path d="M 9.480469 0 C 8.296875 0 7.210938 -0.289062 6.222656 -0.863281 C 5.234375 -1.4375 4.453125 -2.21875 3.878906 -3.207031 C 3.304688 -4.191406 3.015625 -5.28125 3.015625 -6.464844 L 3.015625 -32.324219 C 3.015625 -33.507812 3.304688 -34.59375 3.878906 -35.582031 C 4.453125 -36.570312 5.234375 -37.351562 6.222656 -37.925781 C 7.210938 -38.5 8.296875 -38.789062 9.480469 -38.789062 L 41.695312 -38.789062 L 41.695312 -34.421875 L 9.480469 -34.421875 C 8.90625 -34.421875 8.414062 -34.21875 8 -33.804688 C 7.585938 -33.390625 7.378906 -32.898438 7.378906 -32.324219 L 7.378906 -6.464844 C 7.378906 -5.890625 7.585938 -5.394531 8 -4.984375 C 8.414062 -4.570312 8.90625 -4.363281 9.480469 -4.363281 L 41.695312 -4.363281 L 41.695312 0 Z M 9.480469 0 "/></g></g></g><g fill="#ffffff" fill-opacity="1"><g transform="translate(191.23775, 54.056438)"><g><path d="M 9.265625 0 C 8.082031 0 6.996094 -0.296875 6.007812 -0.890625 C 5.019531 -1.480469 4.230469 -2.273438 3.636719 -3.257812 C 3.042969 -4.246094 2.746094 -5.332031 2.746094 -6.519531 L 2.746094 -24.726562 C 2.746094 -25.910156 3.042969 -27 3.636719 -27.984375 C 4.230469 -28.972656 5.019531 -29.765625 6.007812 -30.355469 C 6.996094 -30.949219 8.082031 -31.246094 9.265625 -31.246094 L 28.011719 -31.246094 C 29.234375 -31.246094 30.339844 -30.949219 31.324219 -30.355469 C 32.3125 -29.765625 33.105469 -28.972656 33.695312 -27.984375 C 34.289062 -27 34.585938 -25.910156 34.585938 -24.726562 L 34.585938 -6.519531 C 34.585938 -5.332031 34.289062 -4.246094 33.695312 -3.257812 C 33.105469 -2.273438 32.3125 -1.480469 31.324219 -0.890625 C 30.339844 -0.296875 29.234375 0 28.011719 0 Z M 9.265625 -4.417969 L 28.011719 -4.417969 C 28.585938 -4.417969 29.082031 -4.625 29.496094 -5.035156 C 29.90625 -5.449219 30.113281 -5.945312 30.113281 -6.519531 L 30.113281 -24.726562 C 30.113281 -25.300781 29.90625 -25.796875 29.496094 -26.207031 C 29.082031 -26.621094 28.585938 -26.828125 28.011719 -26.828125 L 9.265625 -26.828125 C 8.691406 -26.828125 8.199219 -26.621094 7.785156 -26.207031 C 7.371094 -25.796875 7.164062 -25.300781 7.164062 -24.726562 L 7.164062 -6.519531 C 7.164062 -5.945312 7.371094 -5.449219 7.785156 -5.035156 C 8.199219 -4.625 8.691406 -4.417969 9.265625 -4.417969 Z M 9.265625 -4.417969 "/></g></g></g><g fill="#ffffff" fill-opacity="1"><g transform="translate(227.977926, 54.056438)"><g><path d="M 2.800781 0 L 2.800781 -24.726562 C 2.800781 -25.910156 3.097656 -27 3.691406 -27.984375 C 4.28125 -28.972656 5.074219 -29.765625 6.058594 -30.355469 C 7.046875 -30.949219 8.132812 -31.246094 9.320312 -31.246094 L 26.882812 -31.246094 L 26.882812 -26.828125 L 9.320312 -26.828125 C 8.746094 -26.828125 8.25 -26.621094 7.839844 -26.207031 C 7.425781 -25.796875 7.21875 -25.300781 7.21875 -24.726562 L 7.21875 0 Z M 2.800781 0 "/></g></g></g><g fill="#ffffff" fill-opacity="1"><g transform="translate(255.559989, 54.056438)"><g><path d="M 9.265625 0 C 8.082031 0 6.996094 -0.296875 6.007812 -0.890625 C 5.019531 -1.480469 4.230469 -2.273438 3.636719 -3.257812 C 3.042969 -4.246094 2.746094 -5.332031 2.746094 -6.519531 L 2.746094 -24.726562 C 2.746094 -25.910156 3.042969 -27 3.636719 -27.984375 C 4.230469 -28.972656 5.019531 -29.765625 6.007812 -30.355469 C 6.996094 -30.949219 8.082031 -31.246094 9.265625 -31.246094 L 28.011719 -31.246094 C 29.234375 -31.246094 30.339844 -30.949219 31.324219 -30.355469 C 32.3125 -29.765625 33.105469 -28.972656 33.695312 -27.984375 C 34.289062 -27 34.585938 -25.910156 34.585938 -24.726562 L 34.585938 -13.414062 L 7.164062 -13.414062 L 7.164062 -6.519531 C 7.164062 -5.945312 7.371094 -5.449219 7.785156 -5.035156 C 8.199219 -4.625 8.691406 -4.417969 9.265625 -4.417969 L 34.585938 -4.417969 L 34.585938 0 Z M 7.164062 -17.832031 L 30.113281 -17.832031 L 30.113281 -24.726562 C 30.113281 -25.300781 29.90625 -25.796875 29.496094 -26.207031 C 29.082031 -26.621094 28.585938 -26.828125 28.011719 -26.828125 L 9.265625 -26.828125 C 8.691406 -26.828125 8.199219 -26.621094 7.785156 -26.207031 C 7.371094 -25.796875 7.164062 -25.300781 7.164062 -24.726562 Z M 7.164062 -17.832031 "/></g></g></g></g></g></svg>