<svg xmlns="http://www.w3.org/2000/svg" xmlns:xlink="http://www.w3.org/1999/xlink" width="500" zoomAndPan="magnify" viewBox="0 0 375 374.999991" height="500" preserveAspectRatio="xMidYMid meet" version="1.0"><defs><clipPath id="e2bba9de8b"><path d="M 198.714844 59.1875 L 372.789062 59.1875 L 372.789062 162.105469 L 198.714844 162.105469 Z M 198.714844 59.1875 " clip-rule="nonzero"/></clipPath><clipPath id="177f988b37"><path d="M 204.714844 59.1875 L 366.5 59.1875 C 369.8125 59.1875 372.5 61.875 372.5 65.1875 L 372.5 156.105469 C 372.5 159.417969 369.8125 162.105469 366.5 162.105469 L 204.714844 162.105469 C 201.402344 162.105469 198.714844 159.417969 198.714844 156.105469 L 198.714844 65.1875 C 198.714844 61.875 201.402344 59.1875 204.714844 59.1875 Z M 204.714844 59.1875 " clip-rule="nonzero"/></clipPath><clipPath id="9e0e52796a"><path d="M 0.714844 0.1875 L 174.71875 0.1875 L 174.71875 103.105469 L 0.714844 103.105469 Z M 0.714844 0.1875 " clip-rule="nonzero"/></clipPath><clipPath id="8aa728e04f"><path d="M 6.714844 0.1875 L 168.5 0.1875 C 171.8125 0.1875 174.5 2.875 174.5 6.1875 L 174.5 97.105469 C 174.5 100.417969 171.8125 103.105469 168.5 103.105469 L 6.714844 103.105469 C 3.402344 103.105469 0.714844 100.417969 0.714844 97.105469 L 0.714844 6.1875 C 0.714844 2.875 3.402344 0.1875 6.714844 0.1875 Z M 6.714844 0.1875 " clip-rule="nonzero"/></clipPath><clipPath id="385067bc27"><rect x="0" width="175" y="0" height="104"/></clipPath><clipPath id="c7fcfe314d"><path d="M 3.117188 111.261719 L 197.828125 111.261719 L 197.828125 267.769531 L 3.117188 267.769531 Z M 3.117188 111.261719 " clip-rule="nonzero"/></clipPath><clipPath id="1c6125466a"><path d="M 102.054688 111.808594 L 197.269531 188.355469 C 197.621094 188.636719 197.828125 189.0625 197.828125 189.515625 C 197.828125 189.96875 197.621094 190.394531 197.269531 190.679688 L 102.054688 267.222656 C 101.210938 267.902344 100.007812 267.902344 99.164062 267.222656 L 3.945312 190.679688 C 3.59375 190.394531 3.390625 189.96875 3.390625 189.515625 C 3.390625 189.0625 3.59375 188.636719 3.945312 188.355469 L 99.164062 111.808594 C 100.007812 111.128906 101.210938 111.128906 102.054688 111.808594 Z M 102.054688 111.808594 " clip-rule="nonzero"/></clipPath><clipPath id="46d4bc34cf"><path d="M 0.359375 0.261719 L 194.828125 0.261719 L 194.828125 156.769531 L 0.359375 156.769531 Z M 0.359375 0.261719 " clip-rule="nonzero"/></clipPath><clipPath id="961fd53903"><path d="M 99.054688 0.808594 L 194.269531 77.355469 C 194.621094 77.636719 194.828125 78.0625 194.828125 78.515625 C 194.828125 78.96875 194.621094 79.394531 194.269531 79.679688 L 99.054688 156.222656 C 98.210938 156.902344 97.007812 156.902344 96.164062 156.222656 L 0.945312 79.679688 C 0.59375 79.394531 0.390625 78.96875 0.390625 78.515625 C 0.390625 78.0625 0.59375 77.636719 0.945312 77.355469 L 96.164062 0.808594 C 97.007812 0.128906 98.210938 0.128906 99.054688 0.808594 Z M 99.054688 0.808594 " clip-rule="nonzero"/></clipPath><clipPath id="1db3587aa2"><rect x="0" width="195" y="0" height="157"/></clipPath><clipPath id="00c2383dba"><path d="M 198.714844 212.894531 L 372.789062 212.894531 L 372.789062 315.8125 L 198.714844 315.8125 Z M 198.714844 212.894531 " clip-rule="nonzero"/></clipPath><clipPath id="e3dbea4935"><path d="M 204.714844 212.894531 L 366.5 212.894531 C 369.8125 212.894531 372.5 215.582031 372.5 218.894531 L 372.5 309.8125 C 372.5 313.125 369.8125 315.8125 366.5 315.8125 L 204.714844 315.8125 C 201.402344 315.8125 198.714844 313.125 198.714844 309.8125 L 198.714844 218.894531 C 198.714844 215.582031 201.402344 212.894531 204.714844 212.894531 Z M 204.714844 212.894531 " clip-rule="nonzero"/></clipPath><clipPath id="cd3a4557fa"><path d="M 0.714844 0.894531 L 174.71875 0.894531 L 174.71875 103.8125 L 0.714844 103.8125 Z M 0.714844 0.894531 " clip-rule="nonzero"/></clipPath><clipPath id="dea7fdcea6"><path d="M 6.714844 0.894531 L 168.5 0.894531 C 171.8125 0.894531 174.5 3.582031 174.5 6.894531 L 174.5 97.8125 C 174.5 101.125 171.8125 103.8125 168.5 103.8125 L 6.714844 103.8125 C 3.402344 103.8125 0.714844 101.125 0.714844 97.8125 L 0.714844 6.894531 C 0.714844 3.582031 3.402344 0.894531 6.714844 0.894531 Z M 6.714844 0.894531 " clip-rule="nonzero"/></clipPath><clipPath id="543f3f4510"><rect x="0" width="175" y="0" height="104"/></clipPath></defs><g clip-path="url(#e2bba9de8b)"><g clip-path="url(#177f988b37)"><g transform="matrix(1, 0, 0, 1, 198, 59)"><g clip-path="url(#385067bc27)"><g clip-path="url(#9e0e52796a)"><g clip-path="url(#8aa728e04f)"><path fill="#6b1fad" d="M 0.714844 0.1875 L 174.386719 0.1875 L 174.386719 103.105469 L 0.714844 103.105469 Z M 0.714844 0.1875 " fill-opacity="1" fill-rule="nonzero"/></g></g></g></g></g></g><g clip-path="url(#c7fcfe314d)"><g clip-path="url(#1c6125466a)"><g transform="matrix(1, 0, 0, 1, 3, 111)"><g clip-path="url(#1db3587aa2)"><g clip-path="url(#46d4bc34cf)"><g clip-path="url(#961fd53903)"><rect x="-85.5" width="540" fill="#8f00ff" height="539.999987" y="-193.499998" fill-opacity="1"/></g></g></g></g></g></g><g clip-path="url(#00c2383dba)"><g clip-path="url(#e3dbea4935)"><g transform="matrix(1, 0, 0, 1, 198, 212)"><g clip-path="url(#543f3f4510)"><g clip-path="url(#cd3a4557fa)"><g clip-path="url(#dea7fdcea6)"><path fill="#9457eb" d="M 0.714844 0.894531 L 174.386719 0.894531 L 174.386719 103.8125 L 0.714844 103.8125 Z M 0.714844 0.894531 " fill-opacity="1" fill-rule="nonzero"/></g></g></g></g></g></g></svg>